<?xml version="1.0" encoding="UTF-8"?>
<!DOCTYPE svg PUBLIC "-//W3C//DTD SVG 1.1//EN" "http://www.w3.org/Graphics/SVG/1.1/DTD/svg11.dtd">
<svg xmlns="http://www.w3.org/2000/svg" xmlns:xlink="http://www.w3.org/1999/xlink" version="1.1" width="961px" height="661px" viewBox="-0.5 -0.5 961 661" class="ge-export-svg-dark">
	<defs>
		<style type="text/css">
			svg.ge-export-svg-dark &gt;
			
			* {
			filter: invert(100%) hue-rotate(180deg);
			}
			
			&#xa;
			
			svg.ge-export-svg-dark image {
			filter: invert(100%) hue-rotate(180deg)
			}
		</style>
	</defs>
	<g>
		<rect x="150" y="-150" width="660" height="960" fill="#779555" stroke="#779555" transform="rotate(-90,480,330)" pointer-events="all" />
		<ellipse cx="480" cy="330" rx="50" ry="50" fill="transparent" stroke="rgb(0, 0, 0)" pointer-events="all" />
		<path d="M 480 630 L 480.05 330.05 L 520.05 330.05 L 480.05 330.05 L 480 30" fill="none" stroke="rgb(0, 0, 0)" stroke-miterlimit="10" pointer-events="stroke" />
		<path d="M 30 330 L 480.05 330.05 L 930 330" fill="none" stroke="rgb(0, 0, 0)" stroke-miterlimit="10" pointer-events="stroke" />
		<rect x="780" y="280" width="200" height="100" fill="none" stroke="#000000" transform="rotate(-90,880,330)" pointer-events="all" />
		<rect x="-30" y="320" width="100" height="20" fill="none" stroke="#ff554f" transform="rotate(-90,20,330)" pointer-events="all" />
		<rect x="-20" y="280" width="200" height="100" fill="none" stroke="rgb(0, 0, 0)" transform="rotate(-90,80,330)" pointer-events="all" />
		<rect x="890" y="320" width="100" height="20" fill="none" stroke="#ff6666" transform="rotate(-90,940,330)" pointer-events="all" />
		<rect x="180" y="-120" width="600" height="900" fill="none" stroke="#000000" transform="rotate(-90,480,330)" pointer-events="all" />
	</g>
</svg>
